<?xml version="1.0" encoding="UTF-8"?>
<svg version="1.1" xmlns="http://www.w3.org/2000/svg" width="712" height="253">
<path d="M0 0 C1.3303125 0.804375 1.3303125 0.804375 2.6875 1.625 C6.18783181 0.51627135 9.3941698 -1.20097714 12.6875 -2.8125 C28.15487759 -9.7738497 46.5532953 -11.00033574 62.6875 -5.375 C66.7953287 -3.55495865 70.76262012 -1.56020339 74.6875 0.625 C74.6875 1.285 74.6875 1.945 74.6875 2.625 C75.285625 2.88410156 75.88375 3.14320312 76.5 3.41015625 C82.74343121 6.87749037 85.53042056 14.00631754 87.828125 20.42578125 C90.81774585 31.55532431 90.95218199 42.19820154 90.8828125 53.63671875 C90.87907538 55.45945581 90.87623172 57.28219489 90.87423706 59.10493469 C90.86665561 63.86747938 90.84705522 68.62989917 90.8248291 73.39239502 C90.80062397 79.12529673 90.79156352 84.85824055 90.77992249 90.59117889 C90.76062689 99.26920573 90.72226624 107.94695932 90.6875 116.625 C78.4775 116.625 66.2675 116.625 53.6875 116.625 C53.62691406 111.84386719 53.56632813 107.06273437 53.50390625 102.13671875 C53.46335895 99.08788277 53.42255888 96.03905428 53.38085938 92.99023438 C53.31485575 88.16270704 53.24973253 83.33518022 53.19018555 78.50756836 C53.14205955 74.61066432 53.08970739 70.7138369 53.03455925 66.81702614 C53.01435171 65.33848825 52.99560648 63.85992954 52.97842598 62.38135338 C53.30895341 46.95171338 53.30895341 46.95171338 49.875 32.125 C49.55917969 31.3309375 49.24335937 30.536875 48.91796875 29.71875 C47.11637253 26.65317674 45.05688986 25.08683344 41.6953125 23.953125 C34.2624525 22.73841636 27.68583593 23.94508168 20.6875 26.625 C20.3575 26.955 20.0275 27.285 19.6875 27.625 C19.99481803 29.29665921 20.33267978 30.96277514 20.6875 32.625 C21.01580054 36.22147192 21.11826524 39.82899561 21.25 43.4375 C21.2924585 44.58573242 21.33491699 45.73396484 21.37866211 46.91699219 C22.09546681 70.13742605 21.75998636 93.39714739 21.6875 116.625 C9.1475 116.625 -3.3925 116.625 -16.3125 116.625 C-16.291875 110.4375 -16.27125 104.25 -16.25 97.875 C-16.24246615 84.18814304 -16.27402726 70.501274 -16.57595825 56.81726074 C-16.60838895 55.28488524 -16.63603649 53.75240028 -16.65866089 52.21984863 C-16.7917619 37.66821472 -16.7917619 37.66821472 -24.3125 25.625 C-29.46749283 23.35143502 -34.17166032 23.3856365 -39.6875 23.5 C-40.93466797 23.51353516 -40.93466797 23.51353516 -42.20703125 23.52734375 C-44.24231337 23.5507378 -46.27744564 23.58660275 -48.3125 23.625 C-48.29997192 24.46786057 -48.28744385 25.31072113 -48.27453613 26.17912292 C-48.15526238 34.22229181 -48.03750643 42.26548129 -47.92134857 50.30869579 C-47.86161681 54.44124243 -47.80134976 58.57377964 -47.73974609 62.70629883 C-47.27029065 94.25610239 -47.27029065 94.25610239 -47.21875 107.36328125 C-47.2122644 108.21520554 -47.20577881 109.06712982 -47.19909668 109.94487 C-47.19757776 111.83862336 -47.24830035 113.73233454 -47.3125 115.625 C-47.6425 115.955 -47.9725 116.285 -48.3125 116.625 C-60.5225 116.625 -72.7325 116.625 -85.3125 116.625 C-85.3125 77.685 -85.3125 38.745 -85.3125 -1.375 C-77.65275125 -3.14263433 -70.23293524 -4.84758967 -62.5 -6 C-61.71947266 -6.12117188 -60.93894531 -6.24234375 -60.13476562 -6.3671875 C-57.86233207 -6.71591792 -55.58837065 -7.04951489 -53.3125 -7.375 C-52.28805786 -7.52400757 -52.28805786 -7.52400757 -51.24291992 -7.67602539 C-34.97302976 -9.89762479 -13.65950893 -10.21013799 0 0 Z " fill="#FFFFFF" transform="translate(613.3125,76.375)"/>
<path d="M0 0 C-1.42103213 8.24198638 -4.59603092 15.39520394 -8 23 C-9.00811901 25.32995136 -10.00461637 27.6645626 -11 30 C-12.85625 29.38125 -12.85625 29.38125 -14.75 28.75 C-15.57757813 28.47800781 -16.40515625 28.20601562 -17.2578125 27.92578125 C-19.09562236 27.30532407 -20.92406278 26.6564382 -22.7421875 25.98046875 C-30.73103322 23.0901953 -38.55114951 21.77415938 -47 21 C-47.78890625 20.92652344 -48.5778125 20.85304687 -49.390625 20.77734375 C-61.96731725 20.22531337 -76.11277897 23.56489152 -85.6875 31.9375 C-95.6639659 42.74139791 -98.39101928 56.57726969 -98.3125 70.75 C-98.30686035 71.81114014 -98.3012207 72.87228027 -98.29541016 73.96557617 C-98.08194931 87.75916276 -95.39144882 100.07789907 -86 110.75 C-71.78622395 123.88505198 -54.63211409 122 -36 122 C-36 103.85 -36 85.7 -36 67 C-29.750625 66.814375 -23.50125 66.62875 -17.0625 66.4375 C-15.08773682 66.37618896 -13.11297363 66.31487793 -11.07836914 66.25170898 C-9.5223096 66.20776409 -7.96623927 66.16419924 -6.41015625 66.12109375 C-5.59478394 66.09438599 -4.77941162 66.06767822 -3.93933105 66.04016113 C-1.96020235 65.98776058 0.02021375 65.9880566 2 66 C3.71987206 67.71987206 3.11974788 69.90877029 3.12442017 72.20132446 C3.12082489 72.94578827 3.11722961 73.69025208 3.11352539 74.45727539 C3.11367142 75.23770706 3.11381744 76.01813873 3.1139679 76.82221985 C3.11326858 79.4140598 3.10547536 82.00582878 3.09765625 84.59765625 C3.09579213 86.3898464 3.0943682 88.18203706 3.09336853 89.97422791 C3.08954284 94.70070797 3.07971212 99.42715752 3.06866455 104.15362549 C3.05845153 108.9728555 3.05387115 113.79209042 3.04882812 118.61132812 C3.03808989 128.07423219 3.02101286 137.53711356 3 147 C0.7636234 147.6473923 -1.47339981 148.29255123 -3.71069336 148.93676758 C-4.95636581 149.29628006 -6.20203827 149.65579254 -7.48545837 150.02619934 C-11.50861032 151.14092451 -15.44881571 151.98077966 -19.5625 152.6875 C-20.20123047 152.80416016 -20.83996094 152.92082031 -21.49804688 153.04101562 C-50.71637521 158.07669636 -83.3183616 157.79061124 -108.61328125 140.73828125 C-111.94377276 138.31263686 -115.01836817 135.84911486 -118 133 C-118 132.34 -118 131.68 -118 131 C-118.99 130.67 -119.98 130.34 -121 130 C-137.50206305 110.94071653 -141.22046938 85.58259912 -139.7890625 61.25390625 C-137.79977601 37.72417 -126.81928259 18.87649194 -109.1875 3.625 C-80.42812123 -18.18611286 -30.36888684 -18.98055428 0 0 Z " fill="#FFFFFF" transform="translate(172,41)"/>
<path d="M0 0 C1.00406387 -0.00885223 1.00406387 -0.00885223 2.02841187 -0.0178833 C17.12687634 -0.10818928 31.58405447 2.42291073 43.8125 11.875 C53.89253285 21.95503285 56.47122347 34.68245958 56.49942017 48.57072449 C56.49402725 49.63025078 56.49402725 49.63025078 56.48852539 50.71118164 C56.48867142 51.48302795 56.48881744 52.25487427 56.4889679 53.05010986 C56.48827898 55.56598866 56.48053513 58.08179061 56.47265625 60.59765625 C56.47078843 62.35599222 56.46936625 64.11432872 56.46836853 65.87266541 C56.46457198 70.47408515 56.4547665 75.07547274 56.44366455 79.67687988 C56.43338853 84.38288946 56.42885771 89.08890429 56.42382812 93.79492188 C56.41314136 103.00912862 56.39609977 112.22331162 56.375 121.4375 C54.15895931 121.9145512 51.94278788 122.39099506 49.7265625 122.8671875 C48.49244629 123.13257324 47.25833008 123.39795898 45.98681641 123.67138672 C31.97703267 126.64304424 18.38683564 127.63113272 4.0625 127.6875 C2.76376953 127.708125 1.46503906 127.72875 0.12695312 127.75 C-15.28010261 127.81129112 -31.35017725 125.59850394 -43.58203125 115.48828125 C-52.04400105 106.9939521 -54.01743412 97.05904079 -53.99609375 85.51123047 C-53.72955034 75.9889671 -50.5189493 67.16871659 -43.625 60.4375 C-26.41620835 47.60533875 -3.59718896 46.10449186 17.09765625 48.94921875 C18.22494141 49.19091797 18.22494141 49.19091797 19.375 49.4375 C19.45659574 45.27611737 19.35748524 41.4902516 18.375 37.4375 C17.715 37.4375 17.055 37.4375 16.375 37.4375 C15.818125 36.81875 15.26125 36.2 14.6875 35.5625 C9.03851702 30.37154266 1.10475717 31.08868097 -6.125 31.125 C-7.18493164 31.12628906 -8.24486328 31.12757812 -9.33691406 31.12890625 C-16.75957754 31.21923376 -23.60105476 32.00693816 -30.796875 33.78125 C-33.625 34.4375 -33.625 34.4375 -37.625 34.4375 C-39.74794386 25.12485293 -41.40131491 15.91026226 -42.625 6.4375 C-31.35694527 -1.07453649 -13.19262398 0.03277575 0 0 Z M-12.625 76.4375 C-12.625 77.0975 -12.625 77.7575 -12.625 78.4375 C-13.285 78.4375 -13.945 78.4375 -14.625 78.4375 C-17.11182012 82.16773018 -17.27510128 86.11182612 -16.625 90.4375 C-14.74361195 94.59223195 -13.35255122 96.08046098 -9.25 98.09375 C-3.64099889 100.07208399 1.99943447 99.76204967 7.875 99.625 C8.98359375 99.61146484 10.0921875 99.59792969 11.234375 99.58398438 C13.94843232 99.54888881 16.66145193 99.4997227 19.375 99.4375 C21.46151138 93.56819127 21.46922975 88.67037119 21 82.5 C20.94328125 81.62537109 20.8865625 80.75074219 20.828125 79.84960938 C20.68792119 77.71150131 20.53297033 75.57436887 20.375 73.4375 C16.3751407 73.34966525 12.37553296 73.29682898 8.375 73.25 C7.24964844 73.22486328 6.12429688 73.19972656 4.96484375 73.17382812 C-1.65583534 73.11575199 -6.60562008 73.6269807 -12.625 76.4375 Z " fill="#FFFFFF" transform="translate(440.625,68.5625)"/>
<path d="M0 0 C1.175625 0.04125 2.35125 0.0825 3.5625 0.125 C18.26481413 0.89880601 32.21293923 4.13373175 42.5625 15.5 C50.59460253 26.11298832 52.17939831 38.33186696 52.11352539 51.27368164 C52.11367142 52.04552795 52.11381744 52.81737427 52.1139679 53.61260986 C52.11327898 56.12848866 52.10553513 58.64429061 52.09765625 61.16015625 C52.09578843 62.91849222 52.09436625 64.67682872 52.09336853 66.43516541 C52.08957198 71.03658515 52.0797665 75.63797274 52.06866455 80.23937988 C52.05838853 84.94538946 52.05385771 89.65140429 52.04882812 94.35742188 C52.03814136 103.57162862 52.02109977 112.78581162 52 122 C29.44081653 126.52073359 29.44081653 126.52073359 18.75 127.25 C17.7496875 127.32444336 16.749375 127.39888672 15.71875 127.47558594 C-6.39411713 129.0135642 -31.15036988 129.91272185 -48.875 114.5 C-57.54598353 104.29884291 -58.79873489 94.05339654 -58.19677734 80.98144531 C-57.61285701 75.10167187 -55.23981249 69.85971873 -52 65 C-51.34 65 -50.68 65 -50 65 C-49.75121094 64.401875 -49.50242187 63.80375 -49.24609375 63.1875 C-45.23724474 56.15002212 -35.35098389 53.12791639 -28 51 C-27.39567139 50.81977295 -26.79134277 50.6395459 -26.16870117 50.45385742 C-18.94172723 48.55086941 -11.74046509 48.74147265 -4.3125 48.8125 C-3.02021484 48.81314453 -1.72792969 48.81378906 -0.39648438 48.81445312 C5.19972844 48.84045515 10.48803031 48.95691371 16 50 C15.02464265 44.22485781 13.97734904 39.51482864 10 35 C3.56709799 31.27335332 -2.70551712 31.5405545 -10 31.625 C-11.20011719 31.63080078 -12.40023437 31.63660156 -13.63671875 31.64257812 C-21.48038138 31.7570532 -28.77290229 32.44322557 -36.375 34.34375 C-39 35 -39 35 -42 35 C-44.02534911 25.35933823 -45.72029806 15.77090067 -47 6 C-31.3398504 2.00743711 -16.26084625 -0.5913035 0 0 Z M-19.1875 78.625 C-21.52244944 82.97283689 -21.90862782 86.17129213 -21 91 C-19.12164446 95.22629997 -17.75520587 96.63535826 -13.5859375 98.6484375 C-8.16880807 100.56130744 -2.80621716 100.36477206 2.875 100.25 C3.91914063 100.24484375 4.96328125 100.2396875 6.0390625 100.234375 C11.18560268 100.39313688 11.18560268 100.39313688 16 99 C16 90.75 16 82.5 16 74 C5.6354533 71.92709066 -11.02035796 70.45785796 -19.1875 78.625 Z " fill="#FFFFFF" transform="translate(313,68)"/>
<path d="M0 0 C0.69249865 0.00377932 1.3849973 0.00755865 2.09848076 0.0114525 C2.83311234 0.00762695 3.56774392 0.0038014 4.32463706 -0.00014007 C6.79901104 -0.01050153 9.27315433 -0.00647203 11.74754387 -0.0025093 C13.51634998 -0.00685404 15.28515421 -0.01203639 17.05395561 -0.01799697 C21.86795577 -0.03142389 26.68187759 -0.03196154 31.49589282 -0.02943367 C35.509522 -0.02836644 39.52313517 -0.03324095 43.53676093 -0.03803909 C53.00286734 -0.04914708 62.46893408 -0.04956445 71.93504387 -0.04352492 C81.71213887 -0.03748305 91.48909004 -0.04979861 101.26616049 -0.07109499 C109.65005178 -0.08868767 118.03389719 -0.09471604 126.41780627 -0.09145725 C131.42968967 -0.08964049 136.44147049 -0.09231949 141.45333725 -0.10617179 C146.16552329 -0.11870762 150.87748449 -0.11684648 155.5896669 -0.1037609 C157.32190834 -0.10138626 159.05416539 -0.10416136 160.78638893 -0.11238402 C163.14581081 -0.12277868 165.50446799 -0.11481032 167.86386162 -0.10207289 C168.55412955 -0.10944718 169.24439748 -0.11682146 169.95558262 -0.12441921 C172.580167 -0.09447991 174.62937969 0.05256734 176.97007424 1.29021245 C178.70694156 4.49363384 178.45234283 7.80493117 178.41888481 11.35735399 C178.42285922 12.19084524 178.42683363 13.0243365 178.43092847 13.88308507 C178.44058084 16.68612173 178.42871568 19.48865737 178.41697747 22.29168016 C178.41940446 24.29708369 178.42312288 26.30248602 178.42804009 28.30788499 C178.43746533 33.76234458 178.42800991 39.21662523 178.41470796 44.67107087 C178.40341369 50.37118645 178.4074994 56.07129294 178.40945488 61.77141649 C178.4103385 71.34493265 178.39924331 80.91837809 178.38084465 90.49187547 C178.35967602 101.57033768 178.35616676 112.64869625 178.36240661 123.72717458 C178.36809551 134.37119813 178.3624602 145.01518508 178.35123307 155.65920335 C178.34658079 160.19503785 178.34571594 164.73085002 178.34781891 169.26668626 C178.34969851 174.60510471 178.34162325 179.94341724 178.32575852 185.28181154 C178.32150535 187.2446443 178.32067201 189.20748779 178.32344872 191.17032319 C178.32665634 193.84264746 178.31762467 196.51465241 178.30535942 199.18694383 C178.30913875 199.9699124 178.31291807 200.75288097 178.31681192 201.55957586 C178.28597357 205.33881811 178.19447197 207.04743548 176.04466301 210.27214891 C173.61010145 210.57137838 171.42817422 210.67232536 168.99084526 210.64637071 C167.8888979 210.65233232 167.8888979 210.65233232 166.76468897 210.65841436 C164.2901929 210.66807895 161.81626266 210.65619452 159.34178215 210.64446336 C157.57297606 210.64688998 155.80417133 210.65060804 154.03537041 210.65552598 C149.22131857 210.66495709 144.40746926 210.65549061 139.5934332 210.64219385 C134.56329562 210.63090431 129.53316838 210.63498497 124.50302178 210.63694078 C116.05340811 210.63782463 107.60387454 210.62672506 99.15428215 210.60833055 C89.37721022 210.58716838 79.60025573 210.58365106 69.82316554 210.58989251 C60.43015418 210.59558244 51.0371843 210.58994444 41.64417893 210.57871896 C37.6414411 210.57406735 33.63872858 210.57320156 29.63598877 210.57530481 C24.9238298 210.57718507 20.21179075 210.56910403 15.49965912 210.55324441 C13.76742349 210.54899275 12.03517571 210.54815691 10.30293709 210.55093461 C7.94364681 210.5541445 5.58471755 210.54510495 3.2254644 210.53284532 C2.53519647 210.53662464 1.84492854 210.54040397 1.13374341 210.54429781 C-2.46542332 210.51107106 -3.86511701 210.33229556 -6.95533699 208.27214891 C-7.25404056 205.51596912 -7.35517204 202.98355715 -7.32955879 200.22454149 C-7.3335332 199.38303198 -7.3375076 198.54152248 -7.34160244 197.67451268 C-7.35127145 194.83839962 -7.33937971 192.00277968 -7.32765144 189.16668016 C-7.33007789 187.14009744 -7.33379578 185.11351592 -7.33871406 183.08693773 C-7.34814681 177.57050538 -7.33867763 172.05424972 -7.32538193 166.53783113 C-7.31409603 160.77584876 -7.31817272 155.01387547 -7.32012886 149.25188524 C-7.32101274 139.57403998 -7.30991174 129.89626465 -7.29151863 120.21843797 C-7.27034958 109.0155769 -7.26684057 97.81281832 -7.27308059 86.6099413 C-7.27876738 75.8511203 -7.27313668 65.09233554 -7.26190704 54.33351976 C-7.25725196 49.74661925 -7.25639112 45.15974084 -7.25849289 40.5728386 C-7.26037101 35.17534109 -7.25230866 29.77794847 -7.23643249 24.38047487 C-7.23217542 22.39464706 -7.23134858 20.40880865 -7.23412269 18.42297822 C-7.23732472 15.72178759 -7.22831301 13.02091431 -7.2160334 10.31975633 C-7.21981272 9.5254109 -7.22359205 8.73106548 -7.2274859 7.91264898 C-7.17738341 1.72454309 -6.34607812 0.05882851 0 0 Z M1.04466301 7.27214891 C0.40942468 53.64454698 -0.09116554 99.96569514 -0.01783699 146.33464891 C0.00278801 165.12402391 0.02341301 183.91339891 0.04466301 203.27214891 C56.14466301 203.27214891 112.24466301 203.27214891 170.04466301 203.27214891 C170.89159543 181.39151156 170.89159543 181.39151156 171.17405754 159.52361375 C171.17542206 158.04969568 171.17720772 156.57577794 171.1793676 155.10186082 C171.18381355 151.20160727 171.18220827 147.30138101 171.17898852 143.40112716 C171.17640145 139.26655058 171.17881922 135.13197586 171.18037468 130.99739915 C171.18217627 124.07416706 171.1798415 117.15094576 171.17503411 110.22771531 C171.16957374 102.2732561 171.17137513 94.31882246 171.17686051 86.36436385 C171.18142377 79.46509485 171.1820272 72.56583347 171.17942184 65.66656345 C171.1778794 61.57573073 171.1776089 57.48490998 171.18095833 53.39407808 C171.18388509 49.55406593 171.18177492 45.71408632 171.17606407 41.87407762 C171.17415143 39.82721322 171.17704739 37.78034601 171.18019158 35.73348314 C171.15886119 26.17731914 170.60830662 16.85409029 170.04466301 7.27214891 C114.27466301 7.27214891 58.50466301 7.27214891 1.04466301 7.27214891 Z " fill="#FFFFFF" transform="translate(17.95533698797226,-0.27214890718460083)"/>
<path d="M0 0 C105.6 0 211.2 0 320 0 C320 1.32 320 2.64 320 4 C214.4 4 108.8 4 0 4 C0 2.68 0 1.36 0 0 Z " fill="#FFFFFF" transform="translate(0,238)"/>
<path d="M0 0 C1.796875 0.15234375 1.796875 0.15234375 4 1 C6.37725456 4.4950004 8.08719229 8.21785747 10 12 C11.98 8.04 13.96 4.08 16 0 C17.32 0 18.64 0 20 0 C20.7795458 2.80747455 21.1710149 5.42029808 21.31640625 8.328125 C21.35830078 9.12734375 21.40019531 9.9265625 21.44335938 10.75 C21.48267578 11.575 21.52199219 12.4 21.5625 13.25 C21.60568359 14.09046875 21.64886719 14.9309375 21.69335938 15.796875 C21.79908543 17.86440671 21.90001295 19.93218281 22 22 C20.35 21.67 18.7 21.34 17 21 C16.505 16.05 16.505 16.05 16 11 C14.68 13.64 13.36 16.28 12 19 C9.6875 18.875 9.6875 18.875 7 18 C5.1875 14.9375 5.1875 14.9375 4 12 C3.67 14.97 3.34 17.94 3 21 C1.35 21.33 -0.3 21.66 -2 22 C-2.23576736 14.37685526 -1.83717315 7.41430591 0 0 Z " fill="#FFFFFF" transform="translate(527,231)"/>
<path d="M0 0 C0.99 0 1.98 0 3 0 C3 0.66 3 1.32 3 2 C3.66 2 4.32 2 5 2 C6.7265625 3.96875 6.7265625 3.96875 8.625 6.5 C9.25664062 7.3353125 9.88828125 8.170625 10.5390625 9.03125 C11.26222656 10.00578125 11.26222656 10.00578125 12 11 C12.33 7.7 12.66 4.4 13 1 C14.32 0.67 15.64 0.34 17 0 C18 1 18 1 18.1328125 2.8984375 C18.1125771 9.31306019 17.67899583 15.62228913 17 22 C15.296875 21.87890625 15.296875 21.87890625 13 21 C11.27105302 19.00484099 9.75742499 17.08570336 8.25 14.9375 C7.83878906 14.36966797 7.42757813 13.80183594 7.00390625 13.21679688 C5.99304964 11.81805343 4.99522794 10.40990625 4 9 C4 13.29 4 17.58 4 22 C2.35 21.67 0.7 21.34 -1 21 C-1.02888146 17.68751813 -1.04675799 14.37506833 -1.0625 11.0625 C-1.07087891 10.11697266 -1.07925781 9.17144531 -1.08789062 8.19726562 C-1.09111328 7.29814453 -1.09433594 6.39902344 -1.09765625 5.47265625 C-1.10289307 4.64000244 -1.10812988 3.80734863 -1.11352539 2.94946289 C-1 1 -1 1 0 0 Z " fill="#FFFFFF" transform="translate(368,231)"/>
<path d="M0 0 C3.46624531 0.28531266 4.76274344 0.75777471 7.23828125 3.28515625 C8.26501953 4.65994141 8.26501953 4.65994141 9.3125 6.0625 C10.00988281 6.98160156 10.70726562 7.90070313 11.42578125 8.84765625 C11.94527344 9.55792969 12.46476562 10.26820313 13 11 C13.33 7.37 13.66 3.74 14 0 C15.32 0 16.64 0 18 0 C18 7.26 18 14.52 18 22 C16.68 22 15.36 22 14 22 C12.1484375 19.91796875 12.1484375 19.91796875 10.375 17.1875 C9.78460938 16.29417969 9.19421875 15.40085938 8.5859375 14.48046875 C8.06257813 13.66191406 7.53921875 12.84335938 7 12 C6.34 11.01 5.68 10.02 5 9 C4.67 12.96 4.34 16.92 4 21 C2.68 21 1.36 21 0 21 C-1.20217503 18.59564994 -1.03897118 17.31618631 -0.87890625 14.6484375 C-0.83056641 13.79765625 -0.78222656 12.946875 -0.73242188 12.0703125 C-0.67634766 11.18085938 -0.62027344 10.29140625 -0.5625 9.375 C-0.51029297 8.4778125 -0.45808594 7.580625 -0.40429688 6.65625 C-0.2744565 4.43715988 -0.13948661 2.21850129 0 0 Z " fill="#FFFFFF" transform="translate(497,231)"/>
<path d="M0 0 C3.07904444 0.20750082 4.00327066 1.00349148 6.140625 3.28515625 C7.18476563 4.65994141 7.18476563 4.65994141 8.25 6.0625 C8.95640625 6.98160156 9.6628125 7.90070313 10.390625 8.84765625 C10.92171875 9.55792969 11.4528125 10.26820313 12 11 C12.33 7.37 12.66 3.74 13 0 C14.32 0 15.64 0 17 0 C17 7.26 17 14.52 17 22 C12.21162514 20.80290628 10.931528 18.75889577 8.25 14.9375 C7.83878906 14.36966797 7.42757813 13.80183594 7.00390625 13.21679688 C5.99304964 11.81805343 4.99522794 10.40990625 4 9 C4 12.96 4 16.92 4 21 C2.68 21.33 1.36 21.66 0 22 C-1.58937556 20.41062444 -1.12981143 18.76100154 -1.1328125 16.5625 C-1.13410156 15.66789063 -1.13539063 14.77328125 -1.13671875 13.8515625 C-1.13091797 12.44003906 -1.13091797 12.44003906 -1.125 11 C-1.12886719 10.05898437 -1.13273437 9.11796875 -1.13671875 8.1484375 C-1.13542969 7.25382813 -1.13414062 6.35921875 -1.1328125 5.4375 C-1.13112061 4.19806641 -1.13112061 4.19806641 -1.12939453 2.93359375 C-1 1 -1 1 0 0 Z " fill="#FFFFFF" transform="translate(346,231)"/>
<path d="M0 0 C2.03552952 1.58686292 2.87007691 2.56829354 3.6171875 5.05078125 C4.20739763 10.22853375 4.13962323 13.56122234 1 18 C-1.97318692 20.42259675 -5.27464552 20.36204501 -9.03515625 20.25 C-11.99760746 19.87306784 -13.73975202 18.92785857 -16 17 C-18.07542068 13.34330642 -18.50909933 10.15764454 -18 6 C-16.17493092 2.34986185 -14.84697241 0.46198495 -11.25 -1.5 C-7.15359566 -2.13021605 -3.80465121 -1.66301385 0 0 Z M-11.875 4.125 C-13.55468045 6.92446741 -13.45742277 8.79804064 -13 12 C-10.99273131 14.82504482 -9.85128167 15.83389626 -6.4375 16.5 C-3.91133964 16.19531074 -3.91133964 16.19531074 -2.1875 14.375 C-0.66735155 11.3347031 -0.57111708 9.35958291 -1 6 C-2 4 -2 4 -4 3 C-7.14924548 2.60634432 -9.11909116 2.47145469 -11.875 4.125 Z " fill="#FFFFFF" transform="translate(661,233)"/>
<path d="M0 0 C3.89194923 2.24535532 4.93555914 3.60306722 6.25 7.875 C6.18505914 11.64156989 5.80376779 13.98415616 3.8125 17.1875 C-0.46917248 20.00713798 -5.88712224 21.29747328 -11 20.54296875 C-12.75 19.875 -12.75 19.875 -13.75 17.875 C-14.08899215 11.86287443 -14.03167658 5.77071228 -12.75 -0.125 C-8.54096342 -2.22951829 -4.34701477 -1.30410443 0 0 Z M-8.75 2.875 C-8.75 7.165 -8.75 11.455 -8.75 15.875 C-4.09048964 16.2599808 -4.09048964 16.2599808 0.1875 14.75 C1.75422245 11.98519567 1.63976435 9.99311483 1.25 6.875 C0.29451019 4.91874022 0.29451019 4.91874022 -1.75 3.875 C-5.36023099 3.14458147 -5.36023099 3.14458147 -8.75 2.875 Z " fill="#FFFFFF" transform="translate(680.75,232.125)"/>
<path d="M0 0 C3.01305917 2.00870611 4.56099953 3.43876595 5.5546875 6.97265625 C6.09054321 10.46878805 6.25205796 13.66117877 5 17 C4.34 17 3.68 17 3 17 C3 17.66 3 18.32 3 19 C-0.73368423 21.48912282 -4.66900695 21.55106075 -9 21 C-12.17926316 19.68682609 -13.55064891 18.71487673 -15.375 15.8125 C-16.33856006 11.47647973 -16.0171354 7.0342708 -14 3 C-13.34 3 -12.68 3 -12 3 C-12 2.34 -12 1.68 -12 1 C-7.92608038 -0.35797321 -4.25534032 -0.6420338 0 0 Z M-9.875 5.125 C-11.55468045 7.92446741 -11.45742277 9.79804064 -11 13 C-8.99273131 15.82504482 -7.85128167 16.83389626 -4.4375 17.5 C-1.91133964 17.19531074 -1.91133964 17.19531074 -0.1875 15.375 C1.33264845 12.3347031 1.42888292 10.35958291 1 7 C0 5 0 5 -2 4 C-5.14924548 3.60634432 -7.11909116 3.47145469 -9.875 5.125 Z " fill="#FFFFFF" transform="translate(488,232)"/>
<path d="M0 0 C3 2.4375 3 2.4375 5 5 C5.33 5.33 5.66 5.66 6 6 C6.57750191 10.58214628 6.60577083 13.99734483 4.1875 18 C0.76688216 21.12742203 -2.44334973 21.33489089 -6.99609375 21.29296875 C-10.14507222 20.83259178 -11.834621 19.23099654 -14 17 C-15.87576257 13.24847486 -15.65264335 9.07582168 -15 5 C-10.9857027 -0.14653499 -6.41183425 -1.52325344 0 0 Z M-9.9375 6.125 C-11.22551116 9.61020667 -11.09788302 11.47109028 -10 15 C-6.76746204 17.15502531 -5.74849077 17.46856135 -2 17 C-0.04374022 16.04451019 -0.04374022 16.04451019 1 14 C1.50548595 9.3350149 1.50548595 9.3350149 -0.125 5.0625 C-3.91087034 2.91717348 -6.96831545 2.86847501 -9.9375 6.125 Z " fill="#FFFFFF" transform="translate(404,232)"/>
<path d="M0 0 C3.96 0 7.92 0 12 0 C12.33 1.65 12.66 3.3 13 5 C9.7 5 6.4 5 3 5 C3 5.99 3 6.98 3 8 C5.64 8 8.28 8 11 8 C11.5625 9.9375 11.5625 9.9375 12 12 C11 13 11 13 9.15234375 13.09765625 C7.1015625 13.06510417 5.05078125 13.03255208 3 13 C3 14.65 3 16.3 3 18 C6.3 18 9.6 18 13 18 C13 19.32 13 20.64 13 22 C8.38 22 3.76 22 -1 22 C-3.62473488 16.75053023 -2.60700622 8.22654273 -1 2.6875 C-0.67 1.800625 -0.34 0.91375 0 0 Z " fill="#FFFFFF" transform="translate(553,231)"/>
<path d="M0 0 C1.79244141 0.01740234 1.79244141 0.01740234 3.62109375 0.03515625 C5.41740234 0.04869141 5.41740234 0.04869141 7.25 0.0625 C8.17683594 0.07410156 9.10367188 0.08570313 10.05859375 0.09765625 C10.05859375 1.41765625 10.05859375 2.73765625 10.05859375 4.09765625 C6.75859375 4.09765625 3.45859375 4.09765625 0.05859375 4.09765625 C0.05859375 5.41765625 0.05859375 6.73765625 0.05859375 8.09765625 C3.02859375 8.09765625 5.99859375 8.09765625 9.05859375 8.09765625 C9.38859375 9.08765625 9.71859375 10.07765625 10.05859375 11.09765625 C9.05859375 12.09765625 9.05859375 12.09765625 7.2109375 12.1953125 C5.16015625 12.16276042 3.109375 12.13020833 1.05859375 12.09765625 C1.05859375 13.74765625 1.05859375 15.39765625 1.05859375 17.09765625 C4.35859375 17.42765625 7.65859375 17.75765625 11.05859375 18.09765625 C11.05859375 19.41765625 11.05859375 20.73765625 11.05859375 22.09765625 C8.74615583 22.12451037 6.43363105 22.14398466 4.12109375 22.16015625 C2.83332031 22.17175781 1.54554688 22.18335938 0.21875 22.1953125 C-2.94140625 22.09765625 -2.94140625 22.09765625 -3.94140625 21.09765625 C-4.04021422 19.62112961 -4.0721987 18.13998389 -4.07421875 16.66015625 C-4.07550781 15.76554688 -4.07679688 14.8709375 -4.078125 13.94921875 C-4.07232422 12.53769531 -4.07232422 12.53769531 -4.06640625 11.09765625 C-4.07027344 10.15664062 -4.07414063 9.215625 -4.078125 8.24609375 C-4.07683594 7.35148438 -4.07554687 6.456875 -4.07421875 5.53515625 C-4.07252686 4.29572266 -4.07252686 4.29572266 -4.07080078 3.03125 C-3.85677557 -0.16701349 -3.25759769 0.10815397 0 0 Z " fill="#FFFFFF" transform="translate(692.94140625,230.90234375)"/>
<path d="M0 0 C1.91381836 0.36547852 1.91381836 0.36547852 4 1 C8.0144754 7.26622081 10.09420044 14.85712524 12 22 C10.35 22 8.7 22 7 22 C6.67 20.35 6.34 18.7 6 17 C3.03 17 0.06 17 -3 17 C-3.99 19.475 -3.99 19.475 -5 22 C-6.32 22 -7.64 22 -9 22 C-8.4560915 16.52638111 -6.44606199 12.41682999 -3.9375 7.625 C-3.37192383 6.52091797 -3.37192383 6.52091797 -2.79492188 5.39453125 C-1.87055636 3.59260354 -0.93627386 1.79576901 0 0 Z M1 7 C-1.2773501 9.81509993 -1.2773501 9.81509993 -1 13 C0.65 13 2.3 13 4 13 C3.34 11.02 2.68 9.04 2 7 C1.67 7 1.34 7 1 7 Z " fill="#FFFFFF" transform="translate(437,231)"/>
<path d="M0 0 C4.62 0 9.24 0 14 0 C14 1.32 14 2.64 14 4 C10.7 4 7.4 4 4 4 C4 5.32 4 6.64 4 8 C6.97 8 9.94 8 13 8 C13 9.32 13 10.64 13 12 C10.36 12 7.72 12 5 12 C5 13.65 5 15.3 5 17 C8.3 17 11.6 17 15 17 C14.67 18.65 14.34 20.3 14 22 C7.07 21.505 7.07 21.505 0 21 C0 14.07 0 7.14 0 0 Z " fill="#FFFFFF" transform="translate(569,231)"/>
<path d="M0 0 C0 1.32 0 2.64 0 4 C-2.97 4 -5.94 4 -9 4 C-9 4.99 -9 5.98 -9 7 C-7.9171875 7.12375 -7.9171875 7.12375 -6.8125 7.25 C-3.29974279 8.18673526 -1.49847457 9.35875545 1 12 C1.5625 15.0625 1.5625 15.0625 1 18 C-0.5 19.875 -0.5 19.875 -3 21 C-6.85925444 21.41931537 -10.28973593 21.23675469 -14 20 C-14 18.68 -14 17.36 -14 16 C-10.7 16 -7.4 16 -4 16 C-4.64196043 12.92201256 -4.64196043 12.92201256 -6.8125 12.04296875 C-7.534375 11.76066406 -8.25625 11.47835937 -9 11.1875 C-12.84832852 9.39115275 -12.84832852 9.39115275 -14.1875 5.9375 C-14 3 -14 3 -12.75 1.1875 C-8.39294448 -1.76907339 -4.91591249 -0.72529856 0 0 Z " fill="#FFFFFF" transform="translate(616,232)"/>
<path d="M0 0 C1.65 0 3.3 0 5 0 C6.65 3.96 8.3 7.92 10 12 C12.28459758 9.71540242 12.97129748 7.87462656 14.125 4.875 C14.47820312 3.96492187 14.83140625 3.05484375 15.1953125 2.1171875 C15.46085937 1.41851562 15.72640625 0.71984375 16 0 C17.32 0 18.64 0 20 0 C19.38169051 5.02474293 17.87023224 9.24720494 15.9375 13.875 C15.65583984 14.56335938 15.37417969 15.25171875 15.08398438 15.9609375 C14.39484734 17.64289909 13.69819202 19.32177697 13 21 C11.35 21 9.7 21 8 21 C6.84475582 18.62918558 5.70074792 16.25396043 4.5625 13.875 C4.07426758 12.87726563 4.07426758 12.87726563 3.57617188 11.859375 C1.69415567 7.90132029 0.48773294 4.41020487 0 0 Z " fill="#FFFFFF" transform="translate(410,232)"/>
<path d="M0 0 C-0.33 1.32 -0.66 2.64 -1 4 C-1.62648438 3.97679687 -2.25296875 3.95359375 -2.8984375 3.9296875 C-3.71570313 3.91164062 -4.53296875 3.89359375 -5.375 3.875 C-6.59316406 3.84019531 -6.59316406 3.84019531 -7.8359375 3.8046875 C-10.21342243 3.78629949 -10.21342243 3.78629949 -12 6 C-12.32339354 9.03989923 -12.45670212 11.14368353 -11 13.875 C-7.74686316 15.70488947 -4.68609891 15.18128355 -1 15 C-0.67 16.32 -0.34 17.64 0 19 C-4.84283806 20.61427935 -9.19228677 20.74666416 -13.875 18.8125 C-17.22937903 15.951412 -17.82804677 13.34696693 -18.375 9.0625 C-17.88684091 5.07586747 -16.5720548 3.05865976 -14 0 C-9.5323261 -2.77720269 -4.6598797 -2.32993985 0 0 Z " fill="#FFFFFF" transform="translate(643,233)"/>
<path d="M0 0 C5.28 0 10.56 0 16 0 C16.33 1.32 16.66 2.64 17 4 C14.69 4.33 12.38 4.66 10 5 C10 10.61 10 16.22 10 22 C8.68 22 7.36 22 6 22 C6 16.06 6 10.12 6 4 C3.69 4 1.38 4 -1 4 C-0.67 2.68 -0.34 1.36 0 0 Z " fill="#FFFFFF" transform="translate(447,231)"/>
<path d="M0 0 C5.61 0 11.22 0 17 0 C17 1.32 17 2.64 17 4 C14.69 4 12.38 4 10 4 C10 9.61 10 15.22 10 21 C8.68 21 7.36 21 6 21 C6 15.39 6 9.78 6 4 C3.69 4 1.38 4 -1 4 C-0.67 2.68 -0.34 1.36 0 0 Z " fill="#FFFFFF" transform="translate(585,231)"/>
<path d="M0 0 C0.99 0 1.98 0 3 0 C3.91160286 7.35793733 4.11459026 14.58982977 4 22 C2.35 22 0.7 22 -1 22 C-1.02887814 18.52085059 -1.04675687 15.04173169 -1.0625 11.5625 C-1.07087891 10.56927734 -1.07925781 9.57605469 -1.08789062 8.55273438 C-1.09111328 7.60849609 -1.09433594 6.66425781 -1.09765625 5.69140625 C-1.10289307 4.81685791 -1.10812988 3.94230957 -1.11352539 3.04125977 C-1 1 -1 1 0 0 Z " fill="#FFFFFF" transform="translate(466,231)"/>
<path d="M0 0 C1.32 0 2.64 0 4 0 C3.98839844 1.19238281 3.97679687 2.38476562 3.96484375 3.61328125 C3.95546408 5.17968594 3.94636407 6.74609231 3.9375 8.3125 C3.92912109 9.09818359 3.92074219 9.88386719 3.91210938 10.69335938 C3.90888672 11.45068359 3.90566406 12.20800781 3.90234375 12.98828125 C3.89710693 13.68477783 3.89187012 14.38127441 3.88647461 15.09887695 C3.93104009 17.22497968 3.93104009 17.22497968 5 20 C4.67 20.66 4.34 21.32 4 22 C2.35 21.67 0.7 21.34 -1 21 C-0.835 20.38125 -0.67 19.7625 -0.5 19.125 C0.10877662 16.53769937 0.00111915 15.00587551 -0.5 12.375 C-1.07638642 8.48439169 -1.13324509 4.93073029 -1 1 C-0.67 0.67 -0.34 0.34 0 0 Z " fill="#FFFFFF" transform="translate(707,231)"/>
<path d="M0 0 C1.32 0 2.64 0 4 0 C4 7.26 4 14.52 4 22 C2.68 22 1.36 22 0 22 C0 14.74 0 7.48 0 0 Z " fill="#FFFFFF" transform="translate(338,231)"/>
</svg>
